<svg width="0" height="0" class="hidden">
  <symbol xmlns="http://www.w3.org/2000/svg" viewBox="0 0 22 22" id="comments">
    <path d="M10.2502 11C10.2502 11.2984 10.3687 11.5845 10.5797 11.7955C10.7907 12.0065 11.0768 12.125 11.3752 12.125C11.6736 12.125 11.9597 12.0065 12.1707 11.7955C12.3817 11.5845 12.5002 11.2984 12.5002 11C12.5002 10.7016 12.3817 10.4155 12.1707 10.2045C11.9597 9.99353 11.6736 9.875 11.3752 9.875C11.0768 9.875 10.7907 9.99353 10.5797 10.2045C10.3687 10.4155 10.2502 10.7016 10.2502 11ZM14.9377 11C14.9377 11.2984 15.0562 11.5845 15.2672 11.7955C15.4782 12.0065 15.7643 12.125 16.0627 12.125C16.3611 12.125 16.6472 12.0065 16.8582 11.7955C17.0692 11.5845 17.1877 11.2984 17.1877 11C17.1877 10.7016 17.0692 10.4155 16.8582 10.2045C16.6472 9.99353 16.3611 9.875 16.0627 9.875C15.7643 9.875 15.4782 9.99353 15.2672 10.2045C15.0562 10.4155 14.9377 10.7016 14.9377 11ZM5.56269 11C5.56269 11.2984 5.68122 11.5845 5.8922 11.7955C6.10318 12.0065 6.38933 12.125 6.68769 12.125C6.98606 12.125 7.27221 12.0065 7.48319 11.7955C7.69417 11.5845 7.81269 11.2984 7.81269 11C7.81269 10.7016 7.69417 10.4155 7.48319 10.2045C7.27221 9.99353 6.98606 9.875 6.68769 9.875C6.38933 9.875 6.10318 9.99353 5.8922 10.2045C5.68122 10.4155 5.56269 10.7016 5.56269 11ZM21.0596 6.93125C20.5299 5.67266 19.7705 4.54297 18.8025 3.57266C17.8413 2.60796 16.7003 1.84114 15.4439 1.31563C14.1549 0.774219 12.7861 0.5 11.3752 0.5H11.3283C9.90801 0.507031 8.53223 0.788281 7.23848 1.34141C5.99291 1.87232 4.86253 2.64049 3.91035 3.60312C2.95176 4.57109 2.19941 5.69609 1.6791 6.95C1.14004 8.24844 0.868163 9.62891 0.875194 11.0492C0.883147 12.6769 1.26822 14.2806 2.00019 15.7344V19.2969C2.00019 19.5828 2.11378 19.857 2.31597 20.0592C2.51816 20.2614 2.79238 20.375 3.07832 20.375H6.64316C8.09698 21.107 9.70065 21.492 11.3283 21.5H11.3775C12.7814 21.5 14.1432 21.2281 15.4252 20.6961C16.6752 20.1768 17.812 19.419 18.7721 18.4648C19.74 17.5063 20.5018 16.3859 21.0338 15.1367C21.5869 13.843 21.8682 12.4672 21.8752 11.0469C21.8822 9.61953 21.6057 8.23438 21.0596 6.93125ZM17.5182 17.1969C15.8752 18.8234 13.6955 19.7188 11.3752 19.7188H11.3354C9.92207 19.7117 8.51816 19.3602 7.27832 18.6992L7.08144 18.5938H3.78144V15.2938L3.67598 15.0969C3.01504 13.857 2.66348 12.4531 2.65644 11.0398C2.64707 8.70312 3.54004 6.50937 5.17832 4.85703C6.81426 3.20469 9.00098 2.29062 11.3377 2.28125H11.3775C12.5494 2.28125 13.6861 2.50859 14.7572 2.95859C15.8025 3.39687 16.74 4.02734 17.5463 4.83359C18.3502 5.6375 18.983 6.57734 19.4213 7.62266C19.876 8.70547 20.1033 9.85391 20.0986 11.0398C20.0846 13.3742 19.1682 15.5609 17.5182 17.1969Z" ></path>
  </symbol>
  <symbol xmlns="http://www.w3.org/2000/svg" viewBox="0 0 19 20" id="likes">
    <path d="M18.1383 10.5094C18.532 9.98909 18.75 9.35159 18.75 8.6883C18.75 7.63596 18.1617 6.63987 17.2148 6.0844C16.9711 5.94142 16.6935 5.86617 16.4109 5.86643H10.7906L10.9313 2.98596C10.9641 2.28987 10.718 1.62893 10.2398 1.12502C10.0052 0.876652 9.72212 0.679038 9.40808 0.544395C9.09405 0.409752 8.75574 0.34094 8.41406 0.342211C7.19531 0.342211 6.11719 1.16252 5.79375 2.33674L3.78047 9.62581H0.75C0.335156 9.62581 0 9.96096 0 10.3758V18.9071C0 19.3219 0.335156 19.6571 0.75 19.6571H14.843C15.0586 19.6571 15.2695 19.6149 15.4641 19.5305C16.5797 19.0547 17.2992 17.9649 17.2992 16.7555C17.2992 16.4602 17.257 16.1696 17.1727 15.8883C17.5664 15.368 17.7844 14.7305 17.7844 14.0672C17.7844 13.7719 17.7422 13.4813 17.6578 13.2C18.0516 12.6797 18.2695 12.0422 18.2695 11.3789C18.2648 11.0836 18.2227 10.7906 18.1383 10.5094ZM1.6875 17.9696V11.3133H3.58594V17.9696H1.6875ZM16.6031 9.69612L16.0898 10.1414L16.4156 10.7367C16.523 10.9328 16.5786 11.153 16.5773 11.3766C16.5773 11.7633 16.4086 12.1313 16.118 12.3844L15.6047 12.8297L15.9305 13.425C16.0378 13.6211 16.0935 13.8413 16.0922 14.0649C16.0922 14.4516 15.9234 14.8196 15.6328 15.0727L15.1195 15.518L15.4453 16.1133C15.5526 16.3094 15.6083 16.5296 15.607 16.7531C15.607 17.2781 15.2977 17.7516 14.8195 17.9672H5.08594V11.2383L7.41797 2.78909C7.4781 2.57252 7.60719 2.38147 7.78566 2.24486C7.96414 2.10825 8.18228 2.03354 8.40703 2.03205C8.58516 2.03205 8.76094 2.08362 8.90156 2.18909C9.13359 2.36252 9.25781 2.62502 9.24375 2.90393L9.01875 7.55393H16.3875C16.8047 7.8094 17.0625 8.24065 17.0625 8.6883C17.0625 9.07502 16.8938 9.44065 16.6031 9.69612Z" ></path>
  </symbol>
  <symbol xmlns="http://www.w3.org/2000/svg" viewBox="0 0 19 20" id="save">
    <path d="M18.3117 4.87422L14.5008 1.06328C14.325 0.8875 14.1094 0.758594 13.875 0.688281V0.625H0.75C0.335156 0.625 0 0.960156 0 1.375V18.625C0 19.0398 0.335156 19.375 0.75 19.375H18C18.4148 19.375 18.75 19.0398 18.75 18.625V5.93359C18.75 5.53516 18.593 5.15547 18.3117 4.87422ZM6.375 2.3125H12.375V4.75H6.375V2.3125ZM17.0625 17.6875H1.6875V2.3125H4.875V5.5C4.875 5.91484 5.21016 6.25 5.625 6.25H13.125C13.5398 6.25 13.875 5.91484 13.875 5.5V2.82344L17.0625 6.01094V17.6875ZM9.375 8.35938C7.51172 8.35938 6 9.87109 6 11.7344C6 13.5977 7.51172 15.1094 9.375 15.1094C11.2383 15.1094 12.75 13.5977 12.75 11.7344C12.75 9.87109 11.2383 8.35938 9.375 8.35938ZM9.375 13.6094C8.33906 13.6094 7.5 12.7703 7.5 11.7344C7.5 10.6984 8.33906 9.85938 9.375 9.85938C10.4109 9.85938 11.25 10.6984 11.25 11.7344C11.25 12.7703 10.4109 13.6094 9.375 13.6094Z" ></path>
  </symbol>
  <symbol xmlns="http://www.w3.org/2000/svg" viewBox="0 0 18 20" id="share">
    <path d="M15 13.5625C14.332 13.5625 13.7156 13.7969 13.2328 14.1883L8.37656 10.675C8.45788 10.2287 8.45788 9.77133 8.37656 9.325L13.2328 5.81172C13.7156 6.20312 14.332 6.4375 15 6.4375C16.5516 6.4375 17.8125 5.17656 17.8125 3.625C17.8125 2.07344 16.5516 0.8125 15 0.8125C13.4484 0.8125 12.1875 2.07344 12.1875 3.625C12.1875 3.89687 12.225 4.15703 12.2977 4.40547L7.68516 7.74531C7.00078 6.83828 5.91328 6.25 4.6875 6.25C2.61562 6.25 0.9375 7.92812 0.9375 10C0.9375 12.0719 2.61562 13.75 4.6875 13.75C5.91328 13.75 7.00078 13.1617 7.68516 12.2547L12.2977 15.5945C12.225 15.843 12.1875 16.1055 12.1875 16.375C12.1875 17.9266 13.4484 19.1875 15 19.1875C16.5516 19.1875 17.8125 17.9266 17.8125 16.375C17.8125 14.8234 16.5516 13.5625 15 13.5625ZM15 2.40625C15.6727 2.40625 16.2188 2.95234 16.2188 3.625C16.2188 4.29766 15.6727 4.84375 15 4.84375C14.3273 4.84375 13.7812 4.29766 13.7812 3.625C13.7812 2.95234 14.3273 2.40625 15 2.40625ZM4.6875 12.0625C3.55078 12.0625 2.625 11.1367 2.625 10C2.625 8.86328 3.55078 7.9375 4.6875 7.9375C5.82422 7.9375 6.75 8.86328 6.75 10C6.75 11.1367 5.82422 12.0625 4.6875 12.0625ZM15 17.5938C14.3273 17.5938 13.7812 17.0477 13.7812 16.375C13.7812 15.7023 14.3273 15.1562 15 15.1562C15.6727 15.1562 16.2188 15.7023 16.2188 16.375C16.2188 17.0477 15.6727 17.5938 15 17.5938Z" ></path>
  </symbol>
  <symbol xmlns="http://www.w3.org/2000/svg" viewBox="0 0 22 22" id="close">
    <path d="M15.5371 1.92734C15.5084 1.91289 15.4765 1.90604 15.4444 1.90747C15.4123 1.90889 15.3811 1.91854 15.3538 1.93548C15.3265 1.95242 15.3041 1.97608 15.2885 2.00421C15.273 2.03233 15.265 2.06397 15.2652 2.09609V3.60078C15.2652 3.72969 15.3332 3.84922 15.441 3.91953C15.9695 4.2522 16.4586 4.64376 16.8988 5.08672C17.6652 5.85547 18.2676 6.74844 18.6871 7.74219C19.121 8.77093 19.3434 9.87648 19.341 10.993C19.341 12.1203 19.1207 13.2148 18.6871 14.2438C18.268 15.2361 17.6608 16.1378 16.8988 16.8992C16.1394 17.6631 15.2382 18.2713 14.2457 18.6898C13.2191 19.1258 12.1246 19.3461 10.9996 19.3461C9.8746 19.3461 8.78007 19.1258 7.7535 18.6898C6.76102 18.2713 5.85978 17.6631 5.10038 16.8992C4.33843 16.1378 3.73115 15.2361 3.3121 14.2438C2.87823 13.215 2.65584 12.1095 2.65819 10.993C2.65819 9.86563 2.8785 8.77109 3.3121 7.74219C3.73163 6.74844 4.33397 5.85547 5.10038 5.08672C5.54569 4.64141 6.03319 4.25234 6.55819 3.91953C6.66835 3.85156 6.73397 3.72969 6.73397 3.60078V2.09375C6.73397 1.95312 6.58632 1.86406 6.4621 1.925C3.18319 3.575 0.921473 6.95234 0.874598 10.8664C0.808973 16.4633 5.38632 21.1133 10.9808 21.125C16.5824 21.1367 21.1246 16.5945 21.1246 10.9906C21.1246 7.025 18.8512 3.59141 15.5371 1.92734V1.92734ZM10.2496 12.125H11.7496C11.8527 12.125 11.9371 12.0406 11.9371 11.9375V1.0625C11.9371 0.959375 11.8527 0.875 11.7496 0.875H10.2496C10.1465 0.875 10.0621 0.959375 10.0621 1.0625V11.9375C10.0621 12.0406 10.1465 12.125 10.2496 12.125Z" fill="black"></path>
  </symbol>
  <symbol xmlns="http://www.w3.org/2000/svg" viewBox="0 0 12 14" id="fire">
    <path d="M11.0328 6.33147C10.7295 5.64875 10.2885 5.03597 9.7375 4.53147L9.28281 4.11428C9.26737 4.10051 9.24879 4.09073 9.22869 4.08581C9.2086 4.08089 9.1876 4.08099 9.16754 4.08608C9.14749 4.09117 9.12899 4.1011 9.11367 4.11501C9.09835 4.12892 9.08668 4.14638 9.07969 4.16585L8.87656 4.74866C8.75 5.11428 8.51719 5.48772 8.1875 5.85491C8.16563 5.87835 8.14063 5.8846 8.12344 5.88616C8.10625 5.88772 8.07969 5.8846 8.05625 5.86272C8.03437 5.84397 8.02344 5.81585 8.025 5.78772C8.08281 4.8471 7.80156 3.78616 7.18594 2.63147C6.67656 1.6721 5.96875 0.92366 5.08437 0.401785L4.43906 0.0220976C4.35469 -0.0279024 4.24688 0.0377225 4.25156 0.13616L4.28594 0.88616C4.30937 1.39866 4.25 1.85179 4.10938 2.22835C3.9375 2.68929 3.69062 3.11741 3.375 3.50179C3.15535 3.76891 2.90639 4.01053 2.63281 4.2221C1.97391 4.72861 1.43815 5.37762 1.06562 6.12054C0.694022 6.86993 0.500453 7.695 0.5 8.53147C0.5 9.26897 0.645312 9.98304 0.932812 10.6565C1.21042 11.3049 1.61103 11.8933 2.1125 12.3893C2.61875 12.8893 3.20625 13.283 3.86094 13.5565C4.53906 13.8408 5.25781 13.9846 6 13.9846C6.74219 13.9846 7.46094 13.8408 8.13906 13.558C8.79214 13.2862 9.38601 12.8898 9.8875 12.3908C10.3938 11.8908 10.7906 11.3065 11.0672 10.658C11.3543 9.98644 11.5015 9.26341 11.5 8.53303C11.5 7.77053 11.3438 7.02991 11.0328 6.33147ZM9.14062 11.633C8.30156 12.4643 7.1875 12.9205 6 12.9205C4.8125 12.9205 3.69844 12.4643 2.85938 11.633C2.02344 10.8033 1.5625 9.70335 1.5625 8.53303C1.5625 7.85335 1.71563 7.20179 2.01719 6.59554C2.31094 6.00335 2.74844 5.47366 3.27969 5.06585C3.6185 4.80678 3.9258 4.50891 4.19531 4.17835C4.58594 3.70179 4.89219 3.17053 5.10469 2.60022C5.19185 2.36497 5.25519 2.12156 5.29375 1.87366C5.67031 2.22054 5.98594 2.63928 6.25 3.12991C6.77187 4.10803 7.0125 4.97835 6.96562 5.71897C6.95443 5.8934 6.98291 6.06811 7.04895 6.22994C7.11498 6.39178 7.21684 6.53654 7.34688 6.65335C7.45956 6.75514 7.59135 6.83352 7.73458 6.88395C7.87782 6.93438 8.02965 6.95584 8.18125 6.9471C8.48906 6.93147 8.77187 6.79554 8.97812 6.56585C9.18594 6.33304 9.36563 6.09554 9.51562 5.85335C9.73438 6.13304 9.91719 6.43772 10.0625 6.76585C10.3109 7.32522 10.4375 7.92053 10.4375 8.53303C10.4375 9.70335 9.97656 10.8049 9.14062 11.633Z" fill="#FFFFFF"></path>
  </symbol>
</svg>